<?xml version="1.0" encoding="UTF-8"?>
<svg id="Layer_1" data-name="Layer 1" xmlns="http://www.w3.org/2000/svg" viewBox="0 0 960 960">
  <defs>
    <style>
      .cls-1 {
        fill: #e52534;
        stroke-width: 0px;
      }
    </style>
  </defs>
  <path class="cls-1" d="M322.12,369.27c-33.42-.04-55.56,17.58-58.67,43.92-.73,6.09-1.47,12.17-2.24,18.26h434.9s.82-6.42,1.45-11.57c3.27-26.54-8.01-50.61-49.02-50.61h0s-308.79.02-326.41,0ZM56.71,369.28l-7.63,62.17h197.23l7.6-62.17H56.71h0,0ZM718.75,369.28l-7.62,62.17h213.81s.26-2.25,1.21-9.57c5.2-40.81-21.12-52.6-46.54-52.6h-160.86ZM708.19,455.12l-16.66,135.68,73.77-.03,16.67-135.63-73.78-.03h0ZM848.32,455.12l-16.69,135.68,73.77-.03,16.67-135.63-73.75-.03h0s0,0,0,0ZM46.2,455.14l-16.69,135.67h197.21l7.27-58.86h-123.49s3.12-25.39,3.12-25.39h123.44l6.32-51.42H46.21s0,0,0,0ZM258.31,455.14c-5.41,35.41,12.31,51.42,37.43,51.42,13.66,0,99.78-.04,99.78-.04l-3.11,25.42h-143.52s-7.23,58.87-7.23,58.87c0,0,156.25.05,162.58,0,5.23-.38,41.78-1.38,54.22-31.27,4.04-9.71,7.6-44.51,8.6-51.81,5.75-42.43-23.63-52.55-46.76-52.55-12.75,0-136.81-.04-162-.04ZM487.89,455.14l-16.66,135.67h73.73l10.38-84.25h92.61c26.26,0,40.38-14.12,43-33.08.84-6.1,1.59-12.21,2.27-18.34h-205.32s0,0,0,0Z"/>
</svg>
