<?xml version="1.0" encoding="UTF-8"?>
<svg version="1.1" xmlns="http://www.w3.org/2000/svg" width="600" height="300">
<path d="M0 0 C99 0 198 0 300 0 C300 99 300 198 300 300 C201 300 102 300 0 300 C0 201 0 102 0 0 Z " fill="#000000" transform="translate(150,0)"/>
<path d="M0 0 C34.32160531 -2.70624903 34.32160531 -2.70624903 41.82861328 1.63623047 C46.2098367 6.21762769 49 12.59391252 49 19 C103.45 19 157.9 19 214 19 C212.53195771 23.40412687 211.32284118 26.47882978 209.05078125 30.359375 C208.45668457 31.3810376 207.86258789 32.4027002 207.25048828 33.45532227 C206.61095215 34.54256592 205.97141602 35.62980957 205.3125 36.75 C204.30761665 38.47351898 203.3027435 40.197044 202.29846191 41.9209137 C201.60284477 43.11409203 200.90646447 44.30682576 200.20935059 45.49913025 C197.69014404 49.80793213 195.19267872 54.12879223 192.70703125 58.45703125 C192.36229263 59.05693878 192.01755402 59.65684631 191.66236877 60.27493286 C189.99435896 63.17782656 188.32737364 66.08130163 186.66137695 68.98535156 C186.06413818 70.02272461 185.46689941 71.06009766 184.8515625 72.12890625 C184.32385254 73.04744385 183.79614258 73.96598145 183.25244141 74.91235352 C182 77 182 77 181 78 C178.1883662 78.08861992 175.40141745 78.11522355 172.58984375 78.09765625 C171.74780899 78.0962413 170.90577423 78.09482635 170.03822327 78.09336853 C167.33794665 78.08775263 164.63775172 78.07519748 161.9375 78.0625 C160.11132932 78.05748705 158.28515734 78.05292379 156.45898438 78.04882812 C151.97262458 78.03777804 147.48632616 78.02050279 143 78 C144 73 144 73 155 54 C126.95 53.67 98.9 53.34 70 53 C76.74373685 65.36351756 83.42827192 77.59420597 90.61914062 89.67236328 C93.30904992 94.20659158 95.96692653 98.7595586 98.625 103.3125 C99.20975098 104.314021 99.79450195 105.31554199 100.39697266 106.34741211 C105.75056364 115.53642232 111.03095656 124.76669469 116.28149414 134.01489258 C119.2193144 139.18294464 122.17558827 144.33348192 125.26953125 149.41015625 C125.7480957 150.19914307 126.22666016 150.98812988 126.71972656 151.80102539 C127.5844371 153.21710681 128.45934809 154.62703507 129.34667969 156.02905273 C132.05514526 160.4693624 132.05514526 160.4693624 131.8137207 162.79248047 C129.94436631 167.86379832 126.93822237 172.47602379 124.25341797 177.15478516 C123.1275977 179.12046443 122.0146089 181.09303259 120.90234375 183.06640625 C120.18826772 184.3181466 119.47344888 185.56946356 118.7578125 186.8203125 C118.1095752 187.95742676 117.46133789 189.09454102 116.79345703 190.26611328 C115 193 115 193 112 195 C108.07437347 189.54242165 104.72832943 183.82277312 101.5 177.9375 C97.5660166 170.76783782 93.51244171 163.67919882 89.375 156.625 C84.1917722 147.78264665 79.07297619 138.90586441 74 130 C69.0465174 121.30581162 64.05621361 112.6350231 59 104 C53.96810107 95.40482534 48.99625079 86.77679783 44.0625 78.125 C32.88447198 58.52592612 21.60158698 38.98871507 10.21875 19.5078125 C9.44144531 18.17411621 9.44144531 18.17411621 8.6484375 16.81347656 C7.45356065 14.77411624 6.24919417 12.74030636 5.0390625 10.70996094 C4.39710938 9.6274707 3.75515625 8.54498047 3.09375 7.4296875 C2.50271484 6.43952637 1.91167969 5.44936523 1.30273438 4.42919922 C0 2 0 2 0 0 Z " fill="#FBFBFB" transform="translate(192,52)"/>
</svg>
