<svg version="1.1" id="Layer_1" xmlns="http://www.w3.org/2000/svg" xmlns:xlink="http://www.w3.org/1999/xlink" x="0px" y="0px"
	 width="100%" viewBox="0 0 512 512" enable-background="new 0 0 512 512" xml:space="preserve">
<path fill="#6F16E6" opacity="1.000000" stroke="none" 
	d="
M255.000000,513.000000 
	C229.312439,513.000000 203.624878,513.000000 177.523743,512.644897 
	C179.166809,509.313263 180.887863,506.013947 183.363434,503.440369 
	C186.594437,500.081604 189.661118,496.855011 194.827805,495.319122 
	C199.236328,494.008606 203.965836,489.849701 205.951920,485.704437 
	C207.267548,482.958496 207.888794,480.508911 210.598618,478.584167 
	C212.498627,477.234589 213.587738,474.752075 215.064346,472.794647 
	C216.040436,471.500702 216.829941,469.904144 218.104843,469.027283 
	C222.229980,466.190063 228.577835,466.272675 229.928207,459.770050 
	C230.028778,459.285797 231.540985,459.235382 232.077576,458.676575 
	C234.427673,456.229248 236.823090,453.794312 238.886185,451.111877 
	C240.698303,448.755829 241.840622,445.867371 243.740494,443.601074 
	C245.510834,441.489349 247.889694,439.887726 250.453140,437.974274 
	C254.476776,437.886993 258.047943,437.886993 262.061554,437.886993 
	C262.061554,432.632996 262.061554,428.316803 262.452820,423.964417 
	C264.376160,423.565338 265.908234,423.202515 267.660522,423.082275 
	C277.591858,443.371307 300.522614,441.502747 311.701141,431.790588 
	C324.318054,420.828796 324.544983,396.236053 304.892670,386.217377 
	C307.792358,382.701721 310.063599,378.639618 313.525452,376.667725 
	C316.999756,374.688660 317.291840,372.132477 318.038055,369.099091 
	C318.471405,367.337616 319.430573,364.476807 320.510101,364.300903 
	C327.930298,363.091583 332.774506,358.090302 338.032928,353.536163 
	C340.247345,351.618317 343.236237,350.521606 342.343201,346.602966 
	C342.167145,345.830353 343.250854,344.449615 344.101318,343.816284 
	C349.572479,339.742157 354.979431,336.027222 359.661621,330.564209 
	C364.125305,325.356079 368.779510,320.396667 372.581360,314.579926 
	C374.216370,312.078461 377.161194,308.660461 379.442291,308.711792 
	C384.682648,308.829712 385.775085,305.237152 388.367371,302.335144 
	C393.275940,296.840088 396.344421,288.319153 407.420654,290.271820 
	C403.483002,284.554718 407.316406,282.515106 410.468536,279.657654 
	C413.274109,277.114410 415.214478,273.616699 418.012512,269.909851 
	C422.136993,269.603821 421.970734,269.485107 425.102264,265.099854 
	C426.008636,263.830597 428.203400,263.519196 429.742096,262.652435 
	C431.123199,261.874451 433.589386,260.894318 433.559723,260.076416 
	C433.317566,253.392960 438.564148,249.775162 441.725800,245.125580 
	C443.256439,242.874588 446.145050,241.092865 448.793335,240.144928 
	C455.531891,237.732925 461.788147,235.283966 462.347931,226.680679 
	C462.411957,225.696838 463.892120,224.743912 464.820770,223.891144 
	C466.403168,222.438095 468.758179,221.391357 469.570557,219.616425 
	C472.006775,214.293640 475.052551,210.257477 481.551605,210.319580 
	C482.051636,210.324356 482.956818,209.570023 483.003174,209.102097 
	C483.593262,203.146896 490.134613,202.620132 492.628601,198.435486 
	C493.354523,197.217453 494.583099,196.154129 494.891144,194.856125 
	C496.535461,187.927292 505.986694,181.112061 513.000000,182.000000 
	C513.000000,206.354233 513.000000,230.708450 512.650696,255.573364 
	C511.341675,256.686707 510.239227,257.143036 509.446167,257.916565 
	C505.297485,261.963165 501.265717,266.129578 497.121490,270.180878 
	C489.438171,277.691742 481.601013,285.048248 474.024261,292.664337 
	C467.482056,299.240448 461.379822,306.256866 454.786865,312.779205 
	C441.838226,325.589142 428.581573,338.088165 415.663940,350.928650 
	C410.389771,356.171295 406.082520,362.427399 400.591919,367.401825 
	C392.624359,374.620331 383.502563,380.563507 377.465729,389.821472 
	C376.484009,391.326935 374.292175,392.043335 372.376434,392.966614 
	C362.783203,384.018402 351.959869,381.811066 340.289703,386.735291 
	C321.458160,394.681183 318.487762,417.710724 333.724426,433.179565 
	C319.637146,447.439117 305.897186,461.585968 291.987762,475.564178 
	C286.282074,481.298126 280.195557,486.652100 274.309906,492.208191 
	C268.802765,497.406891 263.251740,502.564026 257.902496,507.921661 
	C256.573090,509.253143 255.948517,511.288269 255.000000,513.000000 
z"/>
<path fill="#7B27F7" opacity="1.000000" stroke="none" 
	d="
M150.000000,1.000000 
	C184.020889,1.000000 218.041794,1.000000 252.445374,1.331125 
	C252.019257,2.682067 251.307816,3.801230 250.385468,4.705202 
	C245.309128,9.680382 240.043304,14.469592 235.104767,19.576244 
	C228.457397,26.449907 222.226395,33.730492 215.497223,40.519810 
	C204.558746,51.556072 193.394852,62.370102 182.262253,73.212372 
	C173.850113,81.405136 165.111008,89.277222 156.982224,97.738556 
	C153.714752,101.139694 148.698990,103.788757 148.540634,109.799896 
	C142.499298,109.887917 136.900085,110.206146 131.349976,109.819519 
	C126.517303,109.482864 124.720406,111.520020 124.537201,116.098236 
	C122.995743,117.485069 121.775726,118.767685 120.574829,120.067955 
	C119.203804,121.552429 118.078949,123.392807 116.450500,124.489708 
	C107.248001,130.688339 99.518135,138.442062 92.451530,146.891861 
	C91.763771,147.714233 91.531555,149.519104 91.930611,150.537766 
	C93.203720,153.787720 91.531044,154.677399 88.869797,155.287064 
	C79.878784,157.346848 74.026016,163.587799 68.598282,170.475067 
	C65.650665,174.215302 62.899933,178.413361 59.146210,181.151825 
	C51.622803,186.640396 44.390041,192.209351 39.511387,200.333252 
	C38.772469,201.563690 37.692196,202.586578 36.793991,203.724548 
	C35.489422,205.377380 33.694317,206.868423 33.035809,208.752579 
	C32.064541,211.531601 30.777298,212.834732 27.702082,212.787735 
	C25.677057,212.756790 22.956539,212.997665 21.737255,214.263168 
	C18.530941,217.591003 14.901920,221.162140 13.409598,225.339508 
	C11.125967,231.731949 6.375626,234.451920 1.000000,237.000000 
	C1.000000,208.979111 1.000000,180.958206 1.350094,152.425598 
	C2.617857,151.272308 3.865138,150.831650 4.398818,149.956039 
	C7.481003,144.899124 10.721339,140.162079 17.143356,138.923767 
	C17.932266,138.771637 18.582073,137.649490 19.199478,136.897354 
	C22.883503,132.409317 26.326019,127.699623 30.273323,123.458710 
	C33.294189,120.213135 36.608459,115.734024 40.385258,115.042511 
	C46.448235,113.932396 48.218357,109.088127 51.255272,105.709534 
	C57.057892,99.254082 60.765671,90.649948 67.214363,85.119987 
	C72.989586,80.167549 78.451859,75.309357 83.432159,69.482590 
	C89.995544,61.803677 97.868050,55.243114 105.188011,48.212444 
	C105.898262,47.530266 106.711411,46.955463 107.424583,46.276020 
	C111.049240,42.822769 114.738548,39.432087 118.250069,35.866684 
	C122.970154,31.074184 125.573280,23.868908 133.616959,22.752258 
	C134.031967,19.969103 134.187439,17.005196 138.368225,17.269867 
	C139.288071,17.328100 140.429031,15.780706 141.270264,14.802514 
	C143.041565,12.742819 144.881638,10.696089 146.319962,8.409120 
	C147.780655,6.086592 148.791916,3.481401 150.000000,1.000000 
z"/>
<path fill="#6C13E3" opacity="1.000000" stroke="none" 
	d="
M372.659729,393.124451 
	C374.292175,392.043335 376.484009,391.326935 377.465729,389.821472 
	C383.502563,380.563507 392.624359,374.620331 400.591919,367.401825 
	C406.082520,362.427399 410.389771,356.171295 415.663940,350.928650 
	C428.581573,338.088165 441.838226,325.589142 454.786865,312.779205 
	C461.379822,306.256866 467.482056,299.240448 474.024261,292.664337 
	C481.601013,285.048248 489.438171,277.691742 497.121490,270.180878 
	C501.265717,266.129578 505.297485,261.963165 509.446167,257.916565 
	C510.239227,257.143036 511.341675,256.686707 512.650696,256.042023 
	C513.000000,287.020905 513.000000,318.041779 512.664612,349.618347 
	C510.089691,352.742645 508.035400,355.506622 505.573730,357.841003 
	C499.687408,363.422852 493.541901,368.730682 487.629761,374.286133 
	C482.846436,378.780823 477.265991,382.674683 475.634674,389.711914 
	C475.379883,390.811035 474.186768,392.092590 473.114655,392.540039 
	C463.075470,396.729462 456.269257,404.304749 450.410950,413.145721 
	C448.259735,416.392181 445.220764,419.141541 442.248779,421.729523 
	C438.683868,424.833862 434.368378,427.139252 431.074646,430.477966 
	C425.380219,436.250214 420.468811,442.795715 414.765747,448.558411 
	C409.792908,453.583221 404.000275,457.789093 398.916809,462.714844 
	C395.618134,465.911133 393.183136,469.990540 389.933136,473.247101 
	C384.671753,478.519226 378.912231,483.293091 373.629608,488.545410 
	C366.545197,495.589203 360.720551,503.935730 351.759033,509.023743 
	C350.494476,509.741699 349.903015,511.645233 349.000000,513.000000 
	C317.979095,513.000000 286.958221,513.000000 255.468658,513.000000 
	C255.948517,511.288269 256.573090,509.253143 257.902496,507.921661 
	C263.251740,502.564026 268.802765,497.406891 274.309906,492.208191 
	C280.195557,486.652100 286.282074,481.298126 291.987762,475.564178 
	C305.897186,461.585968 319.637146,447.439117 334.053711,433.287903 
	C352.298553,444.803986 373.490265,437.425507 378.417175,417.759888 
	C380.677765,408.737030 378.107361,400.513458 372.659729,393.124451 
M396.999817,390.271393 
	C394.271698,396.934998 391.543610,403.598633 388.512909,411.001343 
	C394.830566,411.001343 399.808228,411.152008 404.771912,410.953522 
	C408.725677,410.795441 411.478485,409.219910 412.971191,404.910583 
	C415.737274,396.925049 419.286835,389.212494 422.459778,381.365845 
	C424.873505,375.396759 427.209167,369.396118 429.745514,362.990479 
	C423.226654,362.990479 417.560822,363.239014 411.930084,362.901489 
	C408.285492,362.682983 407.130249,364.696838 406.035278,367.448822 
	C403.102966,374.818573 400.055969,382.142700 396.999817,390.271393 
M396.922119,415.036560 
	C395.757416,415.021942 394.592529,414.987335 393.428009,414.996002 
	C386.946503,415.044159 383.073395,418.385559 382.092102,424.761871 
	C381.195526,430.587646 384.275818,435.960449 389.637482,437.922882 
	C395.755219,440.162048 402.402893,437.268066 404.964142,431.250702 
	C407.739288,424.731018 404.970490,418.552155 396.922119,415.036560 
z"/>
<path fill="#7620F0" opacity="1.000000" stroke="none" 
	d="
M1.000000,463.000000 
	C1.000000,433.979095 1.000000,404.958221 1.334052,375.382690 
	C7.689413,369.448944 13.791191,364.156372 19.703896,358.660370 
	C23.674822,354.969238 27.229284,350.826324 31.240477,347.183258 
	C35.757786,343.080597 41.348156,339.927124 45.084534,335.252106 
	C50.485100,328.494781 55.340282,321.484070 62.603977,316.395844 
	C66.148895,313.912567 68.859024,310.225555 71.902138,307.040558 
	C77.951164,300.709534 83.793114,294.169128 90.044571,288.045959 
	C97.816704,280.433289 106.051758,273.293457 113.828598,265.685364 
	C119.230545,260.400635 124.119781,254.596085 129.376404,249.157471 
	C136.999344,241.270630 144.662308,233.418411 152.472107,225.717651 
	C157.524887,220.735428 163.160782,216.321808 167.998734,211.151276 
	C172.377289,206.471710 176.028107,201.111237 180.391296,196.046509 
	C184.184799,196.798111 187.553864,197.851135 190.997391,198.233322 
	C195.078629,198.686310 197.676529,200.535706 200.207077,203.853912 
	C209.570251,216.131470 221.975327,224.152252 236.896042,228.746063 
	C236.932205,232.295395 236.932205,235.406342 236.932205,238.075439 
	C228.703720,239.802658 220.993713,241.066208 213.506027,243.134567 
	C209.441299,244.257401 204.030792,245.765228 202.274750,248.839905 
	C199.105682,254.388641 193.881088,254.603241 189.365234,256.809418 
	C186.832703,258.046692 184.183380,259.071808 181.744995,260.468842 
	C177.721191,262.774200 175.516357,266.019409 175.742447,271.049744 
	C176.040680,277.685547 175.685028,284.350769 175.297699,291.098846 
	C171.467514,294.667114 168.016663,298.210541 164.418594,301.597565 
	C157.384766,308.218842 150.202698,314.683929 143.230392,321.368469 
	C141.343643,323.177338 140.157196,325.698486 138.358627,327.620728 
	C132.690735,333.678497 125.387344,337.635223 119.846581,344.276184 
	C109.821953,356.291382 97.859711,366.688171 86.726151,377.780426 
	C77.558922,386.913605 68.373405,396.029327 59.292713,405.248047 
	C55.831154,408.762299 52.824707,412.735748 49.268856,416.143005 
	C46.070107,419.208099 42.217968,421.586823 38.981590,424.618042 
	C32.304611,430.871704 27.448357,438.764465 20.170252,444.616516 
	C14.433330,449.229401 9.882232,455.305786 4.703521,460.634033 
	C3.709645,461.656586 2.246594,462.223083 1.000000,463.000000 
z"/>
<path fill="#7119E9" opacity="1.000000" stroke="none" 
	d="
M513.000000,78.000008 
	C513.000000,97.687561 513.000000,117.375122 512.668091,137.616241 
	C508.389709,141.447632 504.153534,144.436584 500.547089,148.053482 
	C485.205688,163.439209 470.154999,179.115082 454.796997,194.484009 
	C440.833252,208.457672 426.521973,222.083710 412.530426,236.030075 
	C402.794952,245.734146 393.456726,255.836517 383.730865,265.550507 
	C372.820068,276.447998 361.613983,287.049225 350.643860,297.888184 
	C338.822540,309.568207 327.072479,321.321777 315.396179,333.146759 
	C309.216522,339.405060 303.420471,346.046021 297.168549,352.228363 
	C284.079865,365.171387 270.804016,377.925110 257.333069,390.530334 
	C249.296616,383.121613 241.621841,382.776794 231.196167,389.111267 
	C230.751038,389.043884 230.572632,389.019348 230.307144,388.533813 
	C230.278854,380.049194 230.337646,372.025543 230.732498,363.908203 
	C236.297928,363.787628 239.005554,357.357330 244.745010,358.398499 
	C245.212769,358.483398 246.511017,357.015442 246.487915,356.299255 
	C246.313202,350.886627 252.252625,349.409607 253.461288,346.456879 
	C255.671600,341.057129 259.160095,341.831665 262.841858,340.183472 
	C266.590790,338.505188 269.717712,334.039001 271.625092,330.075562 
	C273.232178,326.736115 272.536835,322.215698 278.360016,323.587860 
	C278.574982,323.638519 279.114166,323.266937 279.132324,323.059692 
	C279.605469,317.653992 283.558044,315.989105 287.915894,314.565674 
	C288.500580,314.374695 288.648926,312.847778 289.359314,311.767578 
	C293.323700,311.053864 297.028168,310.871826 300.513489,309.902069 
	C310.528870,307.115234 320.588348,304.381134 330.365601,300.885437 
	C335.917145,298.900604 338.687714,294.262726 338.237427,287.917236 
	C337.897400,283.126068 337.821808,278.259064 338.261353,273.484100 
	C338.803497,267.594543 336.874634,263.194824 332.038696,259.623779 
	C335.228302,255.831146 338.411865,252.423538 341.530914,248.957870 
	C343.964935,246.253281 346.150513,243.304108 348.746063,240.770569 
	C353.101562,236.519058 357.810181,232.628830 362.156952,228.369003 
	C366.537811,224.075745 370.394043,219.221054 374.955872,215.144714 
	C381.817993,209.012833 388.974854,203.500351 394.899139,196.083939 
	C402.982666,185.964447 413.229980,177.584595 422.428955,168.338837 
	C425.680786,165.070450 428.433716,161.307373 431.666748,158.018143 
	C438.813629,150.747070 446.114441,143.627121 453.367310,136.460556 
	C454.895142,134.950882 456.474548,133.492569 458.051331,132.033447 
	C461.436646,128.900833 464.942200,125.890015 468.207794,122.637779 
	C475.815918,115.060760 483.347443,107.405807 490.839874,99.714096 
	C496.134064,94.279053 501.247223,88.666763 506.578674,83.269402 
	C508.513916,81.310234 510.847931,79.744987 513.000000,78.000008 
z"/>
<path fill="#741DED" opacity="1.000000" stroke="none" 
	d="
M1.000000,463.468658 
	C2.246594,462.223083 3.709645,461.656586 4.703521,460.634033 
	C9.882232,455.305786 14.433330,449.229401 20.170252,444.616516 
	C27.448357,438.764465 32.304611,430.871704 38.981590,424.618042 
	C42.217968,421.586823 46.070107,419.208099 49.268856,416.143005 
	C52.824707,412.735748 55.831154,408.762299 59.292713,405.248047 
	C68.373405,396.029327 77.558922,386.913605 86.726151,377.780426 
	C97.859711,366.688171 109.821953,356.291382 119.846581,344.276184 
	C125.387344,337.635223 132.690735,333.678497 138.358627,327.620728 
	C140.157196,325.698486 141.343643,323.177338 143.230392,321.368469 
	C150.202698,314.683929 157.384766,308.218842 164.418594,301.597565 
	C168.016663,298.210541 171.467514,294.667114 175.397202,291.476318 
	C176.361862,295.807831 178.257965,299.004669 182.115784,300.578949 
	C188.208923,303.065369 194.241074,305.911896 200.572235,307.550385 
	C208.256653,309.539093 216.224869,310.431152 224.114624,312.143250 
	C225.425049,317.073212 221.376282,318.734283 219.251938,321.476349 
	C214.453629,327.669891 209.789352,333.969360 204.883652,340.075592 
	C203.958740,341.226837 202.193039,341.733246 200.769943,342.446716 
	C198.345551,343.662170 195.161621,344.202393 193.581192,346.097473 
	C189.509628,350.979614 186.141068,356.448029 182.273087,361.995636 
	C182.807022,362.452667 184.074875,363.537842 184.963028,364.298035 
	C180.898163,365.566620 176.707489,366.336304 173.050949,368.170746 
	C169.567886,369.918152 164.973724,371.730896 167.094376,377.429260 
	C167.128220,377.520233 166.958267,377.744629 166.831635,377.829376 
	C162.254227,380.892365 157.670654,383.946167 152.835510,386.645874 
	C147.105835,386.215698 141.620880,385.959290 136.156769,386.192139 
	C134.771530,386.251129 132.796280,387.569733 132.225098,388.825073 
	C130.432831,392.764252 129.269913,396.983887 127.695862,401.029785 
	C125.879784,405.697876 123.885536,410.296631 121.490158,416.080933 
	C117.764938,406.573486 114.628250,398.312012 111.243637,390.153351 
	C110.593208,388.585449 109.047920,386.347992 107.781029,386.255249 
	C102.033936,385.834412 96.238701,386.071014 89.716888,386.071014 
	C96.527153,402.102081 103.046417,417.448151 109.171158,432.853577 
	C102.915947,435.456573 99.855507,440.273895 97.980202,446.097382 
	C97.505363,447.571899 96.785927,448.967651 96.178909,450.399628 
	C92.710411,448.298798 90.708069,452.166290 88.095993,452.391632 
	C84.500069,452.701874 84.051247,454.344696 83.954224,457.138458 
	C83.905937,458.528687 83.415703,459.903564 83.086853,461.468811 
	C81.121811,461.122314 79.719269,460.875000 78.654961,460.687317 
	C75.579163,465.008728 73.038559,469.271606 69.795273,472.907715 
	C67.357918,475.640259 64.322182,478.718384 61.011360,479.593079 
	C55.600178,481.022644 52.688713,483.290710 53.227962,487.178802 
	C49.893559,491.198364 46.502899,493.746094 45.351337,497.069641 
	C43.959972,501.085358 41.743298,503.307526 38.380901,505.526093 
	C35.753819,507.259430 34.091171,510.454468 31.999989,513.000000 
	C21.722803,513.000000 11.445604,513.000000 1.000000,513.000000 
	C1.000000,496.646118 1.000000,480.291718 1.000000,463.468658 
z"/>
<path fill="#6A0FE0" opacity="1.000000" stroke="none" 
	d="
M349.468658,513.000000 
	C349.903015,511.645233 350.494476,509.741699 351.759033,509.023743 
	C360.720551,503.935730 366.545197,495.589203 373.629608,488.545410 
	C378.912231,483.293091 384.671753,478.519226 389.933136,473.247101 
	C393.183136,469.990540 395.618134,465.911133 398.916809,462.714844 
	C404.000275,457.789093 409.792908,453.583221 414.765747,448.558411 
	C420.468811,442.795715 425.380219,436.250214 431.074646,430.477966 
	C434.368378,427.139252 438.683868,424.833862 442.248779,421.729523 
	C445.220764,419.141541 448.259735,416.392181 450.410950,413.145721 
	C456.269257,404.304749 463.075470,396.729462 473.114655,392.540039 
	C474.186768,392.092590 475.379883,390.811035 475.634674,389.711914 
	C477.265991,382.674683 482.846436,378.780823 487.629761,374.286133 
	C493.541901,368.730682 499.687408,363.422852 505.573730,357.841003 
	C508.035400,355.506622 510.089691,352.742645 512.664612,350.087036 
	C513.000000,404.260559 513.000000,458.521118 513.000000,513.000000 
	C458.645966,513.000000 404.291656,513.000000 349.468658,513.000000 
z"/>
<path fill="#721BEB" opacity="1.000000" stroke="none" 
	d="
M513.000000,77.531349 
	C510.847931,79.744987 508.513916,81.310234 506.578674,83.269402 
	C501.247223,88.666763 496.134064,94.279053 490.839874,99.714096 
	C483.347443,107.405807 475.815918,115.060760 468.207794,122.637779 
	C464.942200,125.890015 461.436646,128.900833 458.051331,132.033447 
	C456.474548,133.492569 454.895142,134.950882 453.367310,136.460556 
	C446.114441,143.627121 438.813629,150.747070 431.666748,158.018143 
	C428.433716,161.307373 425.680786,165.070450 422.428955,168.338837 
	C413.229980,177.584595 402.982666,185.964447 394.899139,196.083939 
	C388.974854,203.500351 381.817993,209.012833 374.955872,215.144714 
	C370.394043,219.221054 366.537811,224.075745 362.156952,228.369003 
	C357.810181,232.628830 353.101562,236.519058 348.746063,240.770569 
	C346.150513,243.304108 343.964935,246.253281 341.530914,248.957870 
	C338.411865,252.423538 335.228302,255.831146 331.690735,259.550720 
	C324.361572,255.643585 315.681213,255.007370 310.101929,247.552200 
	C307.652710,244.279495 301.637207,243.265945 297.019257,242.121323 
	C289.958588,240.371262 282.705811,239.396286 275.054840,238.005035 
	C275.054840,235.070740 275.054840,232.105911 275.406372,229.014374 
	C289.062958,224.705200 300.791168,217.733109 309.829132,207.182434 
	C314.507996,201.720383 319.519501,198.884796 326.505615,197.188751 
	C356.845337,189.823196 377.274231,171.428619 386.470276,140.967651 
	C388.056763,140.179214 389.418579,139.573837 390.502289,138.644241 
	C394.879150,134.889771 399.180969,131.047348 403.484924,127.208740 
	C404.459503,126.339546 405.378845,125.397179 406.242950,124.417358 
	C411.257568,118.731544 416.070129,112.855255 421.290253,107.365974 
	C428.350220,99.941994 435.688477,92.781105 442.959503,85.559814 
	C450.785309,77.787521 458.652405,70.056526 466.536743,62.343521 
	C473.771881,55.265640 481.155792,48.336849 488.286041,41.155563 
	C495.162689,34.229691 501.758575,27.025745 508.577576,20.041348 
	C509.803711,18.785427 511.513519,18.001736 513.000000,17.000004 
	C513.000000,37.020893 513.000000,57.041790 513.000000,77.531349 
z"/>
<path fill="#7D2AFB" opacity="1.000000" stroke="none" 
	d="
M149.531342,1.000000 
	C148.791916,3.481401 147.780655,6.086592 146.319962,8.409120 
	C144.881638,10.696089 143.041565,12.742819 141.270264,14.802514 
	C140.429031,15.780706 139.288071,17.328100 138.368225,17.269867 
	C134.187439,17.005196 134.031967,19.969103 133.616959,22.752258 
	C125.573280,23.868908 122.970154,31.074184 118.250069,35.866684 
	C114.738548,39.432087 111.049240,42.822769 107.424583,46.276020 
	C106.711411,46.955463 105.898262,47.530266 105.188011,48.212444 
	C97.868050,55.243114 89.995544,61.803677 83.432159,69.482590 
	C78.451859,75.309357 72.989586,80.167549 67.214363,85.119987 
	C60.765671,90.649948 57.057892,99.254082 51.255272,105.709534 
	C48.218357,109.088127 46.448235,113.932396 40.385258,115.042511 
	C36.608459,115.734024 33.294189,120.213135 30.273323,123.458710 
	C26.326019,127.699623 22.883503,132.409317 19.199478,136.897354 
	C18.582073,137.649490 17.932266,138.771637 17.143356,138.923767 
	C10.721339,140.162079 7.481003,144.899124 4.398818,149.956039 
	C3.865138,150.831650 2.617857,151.272308 1.350094,151.956940 
	C1.000000,101.740150 1.000000,51.480301 1.000000,1.000000 
	C50.354008,1.000000 99.708344,1.000000 149.531342,1.000000 
z"/>
<path fill="#7620F1" opacity="1.000000" stroke="none" 
	d="
M346.000000,1.000000 
	C381.020905,1.000000 416.041779,1.000000 451.412323,1.313967 
	C446.975067,5.663064 442.139984,9.642796 437.416931,13.751366 
	C433.832794,16.869200 430.284607,20.043419 426.913055,23.386784 
	C422.516113,27.746943 418.196991,32.198414 414.070190,36.812515 
	C412.117218,38.996044 410.546082,41.567299 409.086731,44.125347 
	C408.420105,45.293869 408.442291,46.855354 408.051971,48.715691 
	C403.660187,46.502327 401.229401,47.802784 399.386688,51.646858 
	C398.351410,53.806477 396.541412,56.120674 394.474640,57.156727 
	C389.227722,59.786972 387.401093,64.175751 387.231628,68.097458 
	C383.380646,69.627991 379.540558,69.980774 377.822479,72.074684 
	C373.919556,76.831337 370.080719,81.455025 365.689484,85.868217 
	C360.769470,90.812828 352.771942,92.394707 350.324219,99.885536 
	C350.243469,100.132660 349.711334,100.199806 349.531921,100.452087 
	C347.340729,103.532700 345.176178,106.632271 342.570251,109.803696 
	C340.864044,109.880455 339.592346,109.880455 337.647064,109.880455 
	C337.647064,104.396759 337.647064,99.402557 337.647064,93.307259 
	C336.262573,94.894646 335.736938,95.497345 334.913757,96.271393 
	C331.532745,98.337242 328.603943,100.568687 325.338837,102.067574 
	C311.631531,108.360123 296.871643,110.309868 281.655090,112.089844 
	C267.144287,112.222977 253.075150,112.381500 239.009674,112.159409 
	C240.444504,106.899414 238.899338,104.857040 233.547546,104.448830 
	C228.537277,104.066666 223.565292,102.470551 218.725372,100.938263 
	C216.934097,100.371155 215.566895,98.464500 214.397797,97.080582 
	C243.111984,90.437454 271.416077,90.537018 299.749664,97.024048 
	C302.010010,97.541557 304.777679,97.516518 306.885559,96.677864 
	C311.253815,94.939865 316.800171,93.432060 316.880585,87.591835 
	C316.961853,81.686272 311.486420,79.655861 307.047150,78.405777 
	C297.502930,75.718155 287.702942,73.938850 278.101654,71.472000 
	C283.862213,64.894218 289.370483,58.478996 295.240723,52.414093 
	C300.873016,46.594971 306.910492,41.169708 312.715057,35.515087 
	C318.635864,29.747238 324.601868,24.018852 330.340729,18.073074 
	C335.701935,12.518582 340.791107,6.701499 346.000000,1.000000 
z"/>
<path fill="#7018E8" opacity="1.000000" stroke="none" 
	d="
M257.605042,390.756592 
	C270.804016,377.925110 284.079865,365.171387 297.168549,352.228363 
	C303.420471,346.046021 309.216522,339.405060 315.396179,333.146759 
	C327.072479,321.321777 338.822540,309.568207 350.643860,297.888184 
	C361.613983,287.049225 372.820068,276.447998 383.730865,265.550507 
	C393.456726,255.836517 402.794952,245.734146 412.530426,236.030075 
	C426.521973,222.083710 440.833252,208.457672 454.796997,194.484009 
	C470.154999,179.115082 485.205688,163.439209 500.547089,148.053482 
	C504.153534,144.436584 508.389709,141.447632 512.668091,138.084900 
	C513.000000,152.354233 513.000000,166.708450 513.000000,181.531342 
	C505.986694,181.112061 496.535461,187.927292 494.891144,194.856125 
	C494.583099,196.154129 493.354523,197.217453 492.628601,198.435486 
	C490.134613,202.620132 483.593262,203.146896 483.003174,209.102097 
	C482.956818,209.570023 482.051636,210.324356 481.551605,210.319580 
	C475.052551,210.257477 472.006775,214.293640 469.570557,219.616425 
	C468.758179,221.391357 466.403168,222.438095 464.820770,223.891144 
	C463.892120,224.743912 462.411957,225.696838 462.347931,226.680679 
	C461.788147,235.283966 455.531891,237.732925 448.793335,240.144928 
	C446.145050,241.092865 443.256439,242.874588 441.725800,245.125580 
	C438.564148,249.775162 433.317566,253.392960 433.559723,260.076416 
	C433.589386,260.894318 431.123199,261.874451 429.742096,262.652435 
	C428.203400,263.519196 426.008636,263.830597 425.102264,265.099854 
	C421.970734,269.485107 422.136993,269.603821 418.012512,269.909851 
	C415.214478,273.616699 413.274109,277.114410 410.468536,279.657654 
	C407.316406,282.515106 403.483002,284.554718 407.420654,290.271820 
	C396.344421,288.319153 393.275940,296.840088 388.367371,302.335144 
	C385.775085,305.237152 384.682648,308.829712 379.442291,308.711792 
	C377.161194,308.660461 374.216370,312.078461 372.581360,314.579926 
	C368.779510,320.396667 364.125305,325.356079 359.661621,330.564209 
	C354.979431,336.027222 349.572479,339.742157 344.101318,343.816284 
	C343.250854,344.449615 342.167145,345.830353 342.343201,346.602966 
	C343.236237,350.521606 340.247345,351.618317 338.032928,353.536163 
	C332.774506,358.090302 327.930298,363.091583 320.510101,364.300903 
	C319.430573,364.476807 318.471405,367.337616 318.038055,369.099091 
	C317.291840,372.132477 316.999756,374.688660 313.525452,376.667725 
	C310.063599,378.639618 307.792358,382.701721 304.503540,386.107666 
	C302.901825,386.024231 301.808136,385.631683 300.687500,385.344177 
	C287.462646,381.951263 271.731995,387.222382 266.309296,403.414917 
	C264.083771,410.060516 264.883789,416.491852 267.440338,422.839691 
	C265.908234,423.202515 264.376160,423.565338 262.363342,423.503174 
	C261.868927,417.960358 262.395844,412.767548 261.698944,407.744537 
	C260.902344,402.003082 259.017181,396.412659 257.605042,390.756592 
M355.081299,331.288055 
	C355.048615,331.101135 355.015930,330.914215 354.983246,330.727295 
	C354.938263,330.911133 354.893280,331.095001 355.081299,331.288055 
z"/>
<path fill="#741DED" opacity="1.000000" stroke="none" 
	d="
M343.004761,109.726944 
	C345.176178,106.632271 347.340729,103.532700 349.531921,100.452087 
	C349.711334,100.199806 350.243469,100.132660 350.324219,99.885536 
	C352.771942,92.394707 360.769470,90.812828 365.689484,85.868217 
	C370.080719,81.455025 373.919556,76.831337 377.822479,72.074684 
	C379.540558,69.980774 383.380646,69.627991 387.231628,68.097458 
	C387.401093,64.175751 389.227722,59.786972 394.474640,57.156727 
	C396.541412,56.120674 398.351410,53.806477 399.386688,51.646858 
	C401.229401,47.802784 403.660187,46.502327 408.051971,48.715691 
	C408.442291,46.855354 408.420105,45.293869 409.086731,44.125347 
	C410.546082,41.567299 412.117218,38.996044 414.070190,36.812515 
	C418.196991,32.198414 422.516113,27.746943 426.913055,23.386784 
	C430.284607,20.043419 433.832794,16.869200 437.416931,13.751366 
	C442.139984,9.642796 446.975067,5.663064 451.880981,1.313967 
	C472.215759,1.000000 492.431519,1.000000 513.000000,1.000000 
	C513.000000,6.013693 513.000000,11.035648 513.000000,16.528807 
	C511.513519,18.001736 509.803711,18.785427 508.577576,20.041348 
	C501.758575,27.025745 495.162689,34.229691 488.286041,41.155563 
	C481.155792,48.336849 473.771881,55.265640 466.536743,62.343521 
	C458.652405,70.056526 450.785309,77.787521 442.959503,85.559814 
	C435.688477,92.781105 428.350220,99.941994 421.290253,107.365974 
	C416.070129,112.855255 411.257568,118.731544 406.242950,124.417358 
	C405.378845,125.397179 404.459503,126.339546 403.484924,127.208740 
	C399.180969,131.047348 394.879150,134.889771 390.502289,138.644241 
	C389.418579,139.573837 388.056763,140.179214 386.442871,140.561981 
	C386.617004,132.405807 387.358612,124.628700 387.666412,116.834465 
	C387.918640,110.447540 387.198120,109.936226 380.965637,109.907158 
	C368.312012,109.848129 355.658386,109.787140 343.004761,109.726944 
z"/>
<path fill="#7722F3" opacity="1.000000" stroke="none" 
	d="
M179.999832,196.051010 
	C176.028107,201.111237 172.377289,206.471710 167.998734,211.151276 
	C163.160782,216.321808 157.524887,220.735428 152.472107,225.717651 
	C144.662308,233.418411 136.999344,241.270630 129.376404,249.157471 
	C124.119781,254.596085 119.230545,260.400635 113.828598,265.685364 
	C106.051758,273.293457 97.816704,280.433289 90.044571,288.045959 
	C83.793114,294.169128 77.951164,300.709534 71.902138,307.040558 
	C68.859024,310.225555 66.148895,313.912567 62.603977,316.395844 
	C55.340282,321.484070 50.485100,328.494781 45.084534,335.252106 
	C41.348156,339.927124 35.757786,343.080597 31.240477,347.183258 
	C27.229284,350.826324 23.674822,354.969238 19.703896,358.660370 
	C13.791191,364.156372 7.689413,369.448944 1.334052,374.914062 
	C1.000000,358.645782 1.000000,342.291534 1.304021,325.323792 
	C4.112967,321.261200 7.084799,318.052643 9.014588,314.307220 
	C11.991245,308.530029 20.478271,307.960419 21.526684,300.549805 
	C21.587700,300.118500 22.548498,299.762970 23.137733,299.465668 
	C31.668352,295.161407 36.363819,286.837830 42.990555,280.540222 
	C46.079277,277.604950 49.038738,274.525146 52.235672,271.714325 
	C56.640621,267.841370 61.648121,264.557983 65.577057,260.270264 
	C68.616135,256.953644 70.414474,252.512512 75.970360,254.506546 
	C77.069351,248.110245 85.550743,234.188873 91.135262,232.081497 
	C97.383720,229.723587 101.476257,226.483490 104.843170,220.548767 
	C108.176544,214.673157 113.606697,209.923340 118.427826,204.982910 
	C120.775787,202.576874 123.834846,200.865952 126.566101,198.832413 
	C128.638474,197.289474 131.622742,196.170593 132.601746,194.104950 
	C135.993454,186.948593 141.080490,181.474304 147.627197,176.993988 
	C157.123566,185.959885 168.215759,191.591248 179.999832,196.051010 
z"/>
<path fill="#7824F4" opacity="1.000000" stroke="none" 
	d="
M214.006287,97.168762 
	C215.566895,98.464500 216.934097,100.371155 218.725372,100.938263 
	C223.565292,102.470551 228.537277,104.066666 233.547546,104.448830 
	C238.899338,104.857040 240.444504,106.899414 238.610443,112.200745 
	C235.761765,112.466499 233.315994,112.310310 230.458054,112.078995 
	C224.956497,111.337341 219.827240,110.887878 214.785385,109.962303 
	C201.389847,107.503136 188.121765,104.598366 176.941986,95.640678 
	C176.557190,95.305199 176.267334,95.197746 175.970245,95.171127 
	C175.871826,95.162300 175.665314,95.356491 175.659103,95.466400 
	C175.403854,99.980141 175.165848,104.494865 174.763153,109.112747 
	C174.391220,109.366417 174.199829,109.537025 173.561188,109.800400 
	C165.065292,109.823265 157.034698,109.773598 149.004089,109.723938 
	C148.698990,103.788757 153.714752,101.139694 156.982224,97.738556 
	C165.111008,89.277222 173.850113,81.405136 182.262253,73.212372 
	C193.394852,62.370102 204.558746,51.556072 215.497223,40.519810 
	C222.226395,33.730492 228.457397,26.449907 235.104767,19.576244 
	C240.043304,14.469592 245.309128,9.680382 250.385468,4.705202 
	C251.307816,3.801230 252.019257,2.682067 252.914032,1.331125 
	C283.687561,1.000000 314.375122,1.000000 345.531342,1.000000 
	C340.791107,6.701499 335.701935,12.518582 330.340729,18.073074 
	C324.601868,24.018852 318.635864,29.747238 312.715057,35.515087 
	C306.910492,41.169708 300.873016,46.594971 295.240723,52.414093 
	C289.370483,58.478996 283.862213,64.894218 277.677307,71.499557 
	C258.529572,70.161499 239.921051,70.249016 221.586456,74.176704 
	C214.410873,75.713882 207.280014,78.216347 200.667953,81.399254 
	C194.898239,84.176666 194.804794,89.181839 199.881790,93.246437 
	C203.901794,96.464813 208.406845,99.096268 214.006287,97.168762 
z"/>
<path fill="#7924F5" opacity="1.000000" stroke="none" 
	d="
M1.000000,237.468658 
	C6.375626,234.451920 11.125967,231.731949 13.409598,225.339508 
	C14.901920,221.162140 18.530941,217.591003 21.737255,214.263168 
	C22.956539,212.997665 25.677057,212.756790 27.702082,212.787735 
	C30.777298,212.834732 32.064541,211.531601 33.035809,208.752579 
	C33.694317,206.868423 35.489422,205.377380 36.793991,203.724548 
	C37.692196,202.586578 38.772469,201.563690 39.511387,200.333252 
	C44.390041,192.209351 51.622803,186.640396 59.146210,181.151825 
	C62.899933,178.413361 65.650665,174.215302 68.598282,170.475067 
	C74.026016,163.587799 79.878784,157.346848 88.869797,155.287064 
	C91.531044,154.677399 93.203720,153.787720 91.930611,150.537766 
	C91.531555,149.519104 91.763771,147.714233 92.451530,146.891861 
	C99.518135,138.442062 107.248001,130.688339 116.450500,124.489708 
	C118.078949,123.392807 119.203804,121.552429 120.574829,120.067955 
	C121.775726,118.767685 122.995743,117.485069 124.610199,116.561646 
	C125.024712,118.744522 125.131203,120.565559 125.032784,122.375458 
	C124.328392,135.328644 127.364052,147.443756 132.793701,159.054474 
	C129.057785,162.108032 127.498268,167.251144 121.963272,167.759521 
	C121.258408,167.824280 120.769852,169.620987 120.068787,170.528580 
	C119.392639,171.403931 118.636734,172.242828 117.801598,172.965744 
	C114.843307,175.526505 111.754364,177.941650 108.873390,180.584686 
	C106.566277,182.701263 104.308907,184.924850 102.362183,187.366257 
	C100.507942,189.691650 99.128471,192.390366 97.451347,194.864685 
	C96.715218,195.950745 95.916267,197.110336 94.871841,197.849274 
	C91.862953,199.978058 88.671600,201.846954 85.629044,203.930542 
	C76.661339,210.071777 73.315796,222.000916 62.594906,226.360809 
	C62.305737,226.478409 62.080761,226.777252 61.852032,227.016586 
	C57.407810,231.666901 52.878601,236.240540 48.564873,241.009048 
	C46.493771,243.298523 45.106022,246.236435 42.923027,248.387756 
	C39.135853,252.120041 33.509594,254.168961 32.530071,260.389832 
	C32.439487,260.965149 31.366961,261.414551 30.712337,261.867401 
	C27.787014,263.891083 24.523081,265.553741 21.980223,267.975494 
	C16.395672,273.294159 11.245159,279.066040 5.747776,284.480621 
	C4.524642,285.685364 2.601071,286.178955 0.999999,287.000000 
	C1.000000,270.645782 1.000000,254.291550 1.000000,237.468658 
z"/>
<path fill="#721AEB" opacity="1.000000" stroke="none" 
	d="
M32.468647,513.000000 
	C34.091171,510.454468 35.753819,507.259430 38.380901,505.526093 
	C41.743298,503.307526 43.959972,501.085358 45.351337,497.069641 
	C46.502899,493.746094 49.893559,491.198364 53.227962,487.178802 
	C52.688713,483.290710 55.600178,481.022644 61.011360,479.593079 
	C64.322182,478.718384 67.357918,475.640259 69.795273,472.907715 
	C73.038559,469.271606 75.579163,465.008728 78.654961,460.687317 
	C79.719269,460.875000 81.121811,461.122314 83.086853,461.468811 
	C83.415703,459.903564 83.905937,458.528687 83.954224,457.138458 
	C84.051247,454.344696 84.500069,452.701874 88.095993,452.391632 
	C90.708069,452.166290 92.710411,448.298798 96.178909,450.399628 
	C96.785927,448.967651 97.505363,447.571899 97.980202,446.097382 
	C99.855507,440.273895 102.915947,435.456573 109.367332,433.183472 
	C112.030182,436.658356 112.048828,439.708282 110.224159,443.223083 
	C107.999649,447.508118 106.450645,452.143829 104.328529,457.312134 
	C110.069496,457.312134 114.735069,457.053375 119.355881,457.396851 
	C122.834938,457.655457 124.188217,456.214447 125.442162,453.168335 
	C133.856812,432.727661 142.495850,412.379364 151.455917,392.000793 
	C152.899796,392.000305 153.949905,392.000153 155.222824,392.218536 
	C155.594208,392.582794 155.742767,392.728485 155.801361,393.208496 
	C144.411942,409.806244 149.033325,429.156799 166.225235,437.806702 
	C168.141464,443.727448 166.747009,447.563812 161.715073,450.647308 
	C160.582275,451.341431 159.342606,451.891418 158.302597,452.701050 
	C154.877075,455.367676 151.435883,458.025970 148.168015,460.879120 
	C146.068741,462.711975 144.597839,465.935791 142.256226,466.678253 
	C137.567688,468.164795 135.608368,471.216431 135.648697,475.454376 
	C135.687164,479.498199 134.955551,481.599609 130.392242,480.550507 
	C129.789185,480.411865 128.870697,481.443726 128.161438,482.012238 
	C126.853477,483.060699 125.459442,484.046265 124.338264,485.274384 
	C121.628456,488.242676 116.381172,488.814056 115.713608,493.572845 
	C114.691689,500.857697 108.280495,507.395935 101.009369,508.052155 
	C97.915268,508.331421 94.843742,508.730621 95.000000,513.000000 
	C74.312439,513.000000 53.624878,513.000000 32.468647,513.000000 
z"/>
<path fill="#7823F4" opacity="1.000000" stroke="none" 
	d="
M0.999999,287.468658 
	C2.601071,286.178955 4.524642,285.685364 5.747776,284.480621 
	C11.245159,279.066040 16.395672,273.294159 21.980223,267.975494 
	C24.523081,265.553741 27.787014,263.891083 30.712337,261.867401 
	C31.366961,261.414551 32.439487,260.965149 32.530071,260.389832 
	C33.509594,254.168961 39.135853,252.120041 42.923027,248.387756 
	C45.106022,246.236435 46.493771,243.298523 48.564873,241.009048 
	C52.878601,236.240540 57.407810,231.666901 61.852032,227.016586 
	C62.080761,226.777252 62.305737,226.478409 62.594906,226.360809 
	C73.315796,222.000916 76.661339,210.071777 85.629044,203.930542 
	C88.671600,201.846954 91.862953,199.978058 94.871841,197.849274 
	C95.916267,197.110336 96.715218,195.950745 97.451347,194.864685 
	C99.128471,192.390366 100.507942,189.691650 102.362183,187.366257 
	C104.308907,184.924850 106.566277,182.701263 108.873390,180.584686 
	C111.754364,177.941650 114.843307,175.526505 117.801598,172.965744 
	C118.636734,172.242828 119.392639,171.403931 120.068787,170.528580 
	C120.769852,169.620987 121.258408,167.824280 121.963272,167.759521 
	C127.498268,167.251144 129.057785,162.108032 133.098251,159.219315 
	C138.269501,165.150406 142.796829,171.012726 147.324142,176.875046 
	C141.080490,181.474304 135.993454,186.948593 132.601746,194.104950 
	C131.622742,196.170593 128.638474,197.289474 126.566101,198.832413 
	C123.834846,200.865952 120.775787,202.576874 118.427826,204.982910 
	C113.606697,209.923340 108.176544,214.673157 104.843170,220.548767 
	C101.476257,226.483490 97.383720,229.723587 91.135262,232.081497 
	C85.550743,234.188873 77.069351,248.110245 75.970360,254.506546 
	C70.414474,252.512512 68.616135,256.953644 65.577057,260.270264 
	C61.648121,264.557983 56.640621,267.841370 52.235672,271.714325 
	C49.038738,274.525146 46.079277,277.604950 42.990555,280.540222 
	C36.363819,286.837830 31.668352,295.161407 23.137733,299.465668 
	C22.548498,299.762970 21.587700,300.118500 21.526684,300.549805 
	C20.478271,307.960419 11.991245,308.530029 9.014588,314.307220 
	C7.084799,318.052643 4.112967,321.261200 1.304021,324.855164 
	C1.000000,312.645782 1.000000,300.291534 0.999999,287.468658 
z"/>
<path fill="#7018E8" opacity="1.000000" stroke="none" 
	d="
M250.000702,438.061584 
	C247.889694,439.887726 245.510834,441.489349 243.740494,443.601074 
	C241.840622,445.867371 240.698303,448.755829 238.886185,451.111877 
	C236.823090,453.794312 234.427673,456.229248 232.077576,458.676575 
	C231.540985,459.235382 230.028778,459.285797 229.928207,459.770050 
	C228.577835,466.272675 222.229980,466.190063 218.104843,469.027283 
	C216.829941,469.904144 216.040436,471.500702 215.064346,472.794647 
	C213.587738,474.752075 212.498627,477.234589 210.598618,478.584167 
	C207.888794,480.508911 207.267548,482.958496 205.951920,485.704437 
	C203.965836,489.849701 199.236328,494.008606 194.827805,495.319122 
	C189.661118,496.855011 186.594437,500.081604 183.363434,503.440369 
	C180.887863,506.013947 179.166809,509.313263 177.055084,512.644897 
	C165.312439,513.000000 153.624878,513.000000 141.498215,512.636841 
	C141.671204,510.943451 142.018204,509.382477 142.940765,508.322479 
	C147.192459,503.437103 151.437485,498.525513 155.996185,493.932312 
	C163.916504,485.952118 172.159378,478.292358 180.093430,470.325409 
	C188.024750,462.361267 195.711182,454.153778 203.572540,446.119080 
	C206.346390,443.284119 209.319931,440.644470 212.656708,437.886230 
	C218.715149,437.856781 224.319168,437.856781 230.308960,437.856781 
	C230.308960,431.838715 230.258362,426.529297 230.324203,421.221375 
	C230.381912,416.570282 230.321991,411.896057 230.781082,407.278503 
	C231.136444,403.704254 233.451935,401.671844 237.252289,401.741882 
	C241.221619,401.815063 242.853287,404.290405 243.164459,407.806458 
	C243.398483,410.450928 243.281082,413.128174 243.285187,415.790894 
	C243.296371,423.046692 243.289032,430.302460 243.289032,437.584167 
	C246.039795,437.779846 248.020248,437.920715 250.000702,438.061584 
z"/>
<path fill="#7119E9" opacity="1.000000" stroke="none" 
	d="
M212.202286,437.915649 
	C209.319931,440.644470 206.346390,443.284119 203.572540,446.119080 
	C195.711182,454.153778 188.024750,462.361267 180.093430,470.325409 
	C172.159378,478.292358 163.916504,485.952118 155.996185,493.932312 
	C151.437485,498.525513 147.192459,503.437103 142.940765,508.322479 
	C142.018204,509.382477 141.671204,510.943451 141.029556,512.636841 
	C128.645767,513.000000 116.291542,513.000000 103.359566,512.731934 
	C101.854546,512.642517 100.927277,512.821289 100.000000,513.000000 
	C98.611107,513.000000 97.222221,513.000000 95.416664,513.000000 
	C94.843742,508.730621 97.915268,508.331421 101.009369,508.052155 
	C108.280495,507.395935 114.691689,500.857697 115.713608,493.572845 
	C116.381172,488.814056 121.628456,488.242676 124.338264,485.274384 
	C125.459442,484.046265 126.853477,483.060699 128.161438,482.012238 
	C128.870697,481.443726 129.789185,480.411865 130.392242,480.550507 
	C134.955551,481.599609 135.687164,479.498199 135.648697,475.454376 
	C135.608368,471.216431 137.567688,468.164795 142.256226,466.678253 
	C144.597839,465.935791 146.068741,462.711975 148.168015,460.879120 
	C151.435883,458.025970 154.877075,455.367676 158.302597,452.701050 
	C159.342606,451.891418 160.582275,451.341431 161.715073,450.647308 
	C166.747009,447.563812 168.141464,443.727448 166.634598,437.897491 
	C174.441727,440.366821 181.063934,438.391113 187.450043,433.728180 
	C187.887024,435.193298 188.222137,436.316895 188.364014,436.792572 
	C194.443176,436.792572 199.995010,436.792572 206.060013,436.792572 
	C206.060013,421.167694 206.060013,406.084137 206.376923,390.910339 
	C208.373428,389.881561 210.053009,388.943085 211.809174,388.467346 
	C211.991241,405.258636 212.096771,421.587128 212.202286,437.915649 
z"/>
<path fill="#721AEB" opacity="1.000000" stroke="none" 
	d="
M100.375000,513.000000 
	C100.927277,512.821289 101.854546,512.642517 102.890907,512.731934 
	C102.250000,513.000000 101.500000,513.000000 100.375000,513.000000 
z"/>
<path fill="#FDFCFF" opacity="1.000000" stroke="none" 
	d="
M212.656708,437.886230 
	C212.096771,421.587128 211.991241,405.258636 211.887344,388.004150 
	C211.888962,379.183350 211.888962,371.288544 211.888962,362.515167 
	C218.487946,363.045258 224.442200,363.523560 230.396454,364.001892 
	C230.337646,372.025543 230.278854,380.049194 230.274033,388.767914 
	C230.706284,389.360016 231.084579,389.257019 231.462875,389.154053 
	C241.621841,382.776794 249.296616,383.121613 257.333069,390.530334 
	C259.017181,396.412659 260.902344,402.003082 261.698944,407.744537 
	C262.395844,412.767548 261.868927,417.960358 261.972107,423.539398 
	C262.061554,428.316803 262.061554,432.632996 262.061554,437.886993 
	C258.047943,437.886993 254.476776,437.886993 250.453156,437.974304 
	C248.020248,437.920715 246.039795,437.779846 243.289032,437.584167 
	C243.289032,430.302460 243.296371,423.046692 243.285187,415.790894 
	C243.281082,413.128174 243.398483,410.450928 243.164459,407.806458 
	C242.853287,404.290405 241.221619,401.815063 237.252289,401.741882 
	C233.451935,401.671844 231.136444,403.704254 230.781082,407.278503 
	C230.321991,411.896057 230.381912,416.570282 230.324203,421.221375 
	C230.258362,426.529297 230.308960,431.838715 230.308960,437.856781 
	C224.319168,437.856781 218.715149,437.856781 212.656708,437.886230 
z"/>
<path fill="#FDFCFF" opacity="1.000000" stroke="none" 
	d="
M267.660522,423.082275 
	C264.883789,416.491852 264.083771,410.060516 266.309296,403.414917 
	C271.731995,387.222382 287.462646,381.951263 300.687500,385.344177 
	C301.808136,385.631683 302.901825,386.024231 304.397156,386.477661 
	C324.544983,396.236053 324.318054,420.828796 311.701141,431.790588 
	C300.522614,441.502747 277.591858,443.371307 267.660522,423.082275 
M300.411438,404.069092 
	C296.369720,400.721832 291.984131,400.069611 287.616486,403.118744 
	C283.910034,405.706238 282.448822,409.578613 283.347321,414.040894 
	C284.286041,418.702972 287.102631,421.774902 291.942719,422.493103 
	C296.102112,423.110260 299.529724,421.533997 301.757599,418.019104 
	C304.654358,413.449036 304.179749,408.899261 300.411438,404.069092 
z"/>
<path fill="#FDFCFF" opacity="1.000000" stroke="none" 
	d="
M372.376465,392.966614 
	C378.107361,400.513458 380.677765,408.737030 378.417175,417.759888 
	C373.490265,437.425507 352.298553,444.803986 334.332825,433.107330 
	C318.487762,417.710724 321.458160,394.681183 340.289703,386.735291 
	C351.959869,381.811066 362.783203,384.018402 372.376465,392.966614 
M347.897888,402.173492 
	C343.170013,404.625519 340.876984,408.829865 342.264435,413.678864 
	C343.149200,416.771057 345.800751,420.072571 348.583313,421.734253 
	C352.457825,424.047943 356.671112,422.556854 359.764526,419.140411 
	C362.734009,415.860809 363.116241,409.829559 360.782379,406.086731 
	C358.293121,402.094574 354.106812,400.663971 347.897888,402.173492 
z"/>
<path fill="#FAF8FE" opacity="1.000000" stroke="none" 
	d="
M147.627197,176.993988 
	C142.796829,171.012726 138.269501,165.150406 133.437653,159.123230 
	C127.364052,147.443756 124.328392,135.328644 125.032784,122.375458 
	C125.131203,120.565559 125.024712,118.744522 124.940094,116.465240 
	C124.720406,111.520020 126.517303,109.482864 131.349976,109.819519 
	C136.900085,110.206146 142.499298,109.887917 148.540634,109.799896 
	C157.034698,109.773598 165.065292,109.823265 173.808868,109.835464 
	C174.656464,109.535149 174.791061,109.272308 174.925659,109.009460 
	C175.165848,104.494865 175.403854,99.980141 175.659103,95.466400 
	C175.665314,95.356491 175.871826,95.162300 175.970245,95.171127 
	C176.267334,95.197746 176.557190,95.305199 176.951614,96.055748 
	C180.559998,111.811974 183.027634,127.003250 182.139694,142.580215 
	C182.056900,144.032333 182.624298,145.518204 182.864395,146.992538 
	C188.188049,179.681747 201.137314,207.271255 233.158218,222.057846 
	C235.930618,223.338089 237.339371,225.208527 236.859879,228.307663 
	C221.975327,224.152252 209.570251,216.131470 200.207077,203.853912 
	C197.676529,200.535706 195.078629,198.686310 190.997391,198.233322 
	C187.553864,197.851135 184.184799,196.798111 180.391296,196.046509 
	C168.215759,191.591248 157.123566,185.959885 147.627197,176.993988 
M172.365860,125.731781 
	C161.952011,125.731781 151.538162,125.731781 141.169525,125.731781 
	C140.542496,150.101379 164.004318,178.782776 185.270004,179.825333 
	C177.875565,163.248795 175.655853,145.865768 175.131805,128.152725 
	C175.107819,127.342094 173.960083,126.564720 172.365860,125.731781 
z"/>
<path fill="#FDFCFF" opacity="1.000000" stroke="none" 
	d="
M397.027161,389.878174 
	C400.055969,382.142700 403.102966,374.818573 406.035278,367.448822 
	C407.130249,364.696838 408.285492,362.682983 411.930084,362.901489 
	C417.560822,363.239014 423.226654,362.990479 429.745514,362.990479 
	C427.209167,369.396118 424.873505,375.396759 422.459778,381.365845 
	C419.286835,389.212494 415.737274,396.925049 412.971191,404.910583 
	C411.478485,409.219910 408.725677,410.795441 404.771912,410.953522 
	C399.808228,411.152008 394.830566,411.001343 388.512909,411.001343 
	C391.543610,403.598633 394.271698,396.934998 397.027161,389.878174 
z"/>
<path fill="#FDFCFF" opacity="1.000000" stroke="none" 
	d="
M397.334137,415.089844 
	C404.970490,418.552155 407.739288,424.731018 404.964142,431.250702 
	C402.402893,437.268066 395.755219,440.162048 389.637482,437.922882 
	C384.275818,435.960449 381.195526,430.587646 382.092102,424.761871 
	C383.073395,418.385559 386.946503,415.044159 393.428009,414.996002 
	C394.592529,414.987335 395.757416,415.021942 397.334137,415.089844 
z"/>
<path fill="#FEFEFF" opacity="1.000000" stroke="none" 
	d="
M236.896042,228.746063 
	C237.339371,225.208527 235.930618,223.338089 233.158218,222.057846 
	C201.137314,207.271255 188.188049,179.681747 182.864395,146.992538 
	C182.624298,145.518204 182.056900,144.032333 182.139694,142.580215 
	C183.027634,127.003250 180.559998,111.811974 177.043732,96.315277 
	C188.121765,104.598366 201.389847,107.503136 214.785385,109.962303 
	C219.827240,110.887878 224.956497,111.337341 230.477142,112.537323 
	C230.908386,140.760101 230.908386,168.449417 230.908386,197.336746 
	C233.305115,195.561462 234.628738,194.656860 235.868820,193.649414 
	C241.422104,189.137909 247.103989,184.767410 252.430511,180.000778 
	C255.455765,177.293518 257.598816,177.579178 260.498840,180.124222 
	C266.246887,185.168686 272.269684,189.901581 278.219421,194.713150 
	C279.126801,195.446945 280.251160,195.912491 282.096710,196.975174 
	C282.096710,168.006149 282.096710,140.060699 282.096710,112.115242 
	C296.871643,110.309868 311.631531,108.360123 325.338837,102.067574 
	C328.603943,100.568687 331.532745,98.337242 335.053467,96.582382 
	C333.666840,114.323128 332.104095,131.956085 329.962891,149.518494 
	C325.920898,182.671478 310.127869,207.859650 279.178040,222.249954 
	C275.844055,223.800110 274.629852,225.763580 275.054840,229.141083 
	C275.054840,232.105911 275.054840,235.070740 275.054840,238.005035 
	C282.705811,239.396286 289.958588,240.371262 297.019257,242.121323 
	C301.637207,243.265945 307.652710,244.279495 310.101929,247.552200 
	C315.681213,255.007370 324.361572,255.643585 331.656921,259.910675 
	C336.874634,263.194824 338.803497,267.594543 338.261353,273.484100 
	C337.821808,278.259064 337.897400,283.126068 338.237427,287.917236 
	C338.687714,294.262726 335.917145,298.900604 330.365601,300.885437 
	C320.588348,304.381134 310.528870,307.115234 300.513489,309.902069 
	C297.028168,310.871826 293.323700,311.053864 288.910889,311.705658 
	C268.736389,311.955658 249.370285,312.095734 229.611328,312.138672 
	C228.145462,312.039795 227.072464,312.037994 225.689362,311.916870 
	C224.942947,311.797577 224.506622,311.797607 224.070297,311.797668 
	C216.224869,310.431152 208.256653,309.539093 200.572235,307.550385 
	C194.241074,305.911896 188.208923,303.065369 182.115784,300.578949 
	C178.257965,299.004669 176.361862,295.807831 175.709991,291.380798 
	C175.685028,284.350769 176.040680,277.685547 175.742447,271.049744 
	C175.516357,266.019409 177.721191,262.774200 181.744995,260.468842 
	C184.183380,259.071808 186.832703,258.046692 189.365234,256.809418 
	C193.881088,254.603241 199.105682,254.388641 202.274750,248.839905 
	C204.030792,245.765228 209.441299,244.257401 213.506027,243.134567 
	C220.993713,241.066208 228.703720,239.802658 236.932205,238.075439 
	C236.932205,235.406342 236.932205,232.295395 236.896042,228.746063 
M245.945755,281.668579 
	C240.330063,281.096039 234.662048,280.830841 229.109802,279.885620 
	C218.239548,278.035065 207.095596,276.677734 198.759598,268.129272 
	C198.064163,273.204651 200.330917,277.460571 206.981384,279.183594 
	C218.491547,282.165649 230.217896,284.730225 242.012650,286.106049 
	C263.354584,288.595520 284.509003,286.735352 305.032867,280.017395 
	C308.079590,279.020142 310.907928,276.925110 313.413361,274.830780 
	C315.727448,272.896423 316.570984,270.126099 315.054749,266.237701 
	C311.789429,273.461609 305.643738,275.139099 299.782440,276.723541 
	C282.463135,281.405243 264.735901,282.437195 245.945755,281.668579 
z"/>
<path fill="#721AEB" opacity="1.000000" stroke="none" 
	d="
M224.114624,312.143250 
	C224.506622,311.797607 224.942947,311.797577 225.729462,312.253143 
	C227.163467,314.037933 228.247284,315.367096 229.331085,316.696259 
	C229.667099,316.469055 230.003098,316.241852 230.339111,316.014648 
	C230.227463,314.755035 230.115829,313.495422 230.004181,312.235809 
	C249.370285,312.095734 268.736389,311.955658 288.550934,311.877563 
	C288.648926,312.847778 288.500580,314.374695 287.915894,314.565674 
	C283.558044,315.989105 279.605469,317.653992 279.132324,323.059692 
	C279.114166,323.266937 278.574982,323.638519 278.360016,323.587860 
	C272.536835,322.215698 273.232178,326.736115 271.625092,330.075562 
	C269.717712,334.039001 266.590790,338.505188 262.841858,340.183472 
	C259.160095,341.831665 255.671600,341.057129 253.461288,346.456879 
	C252.252625,349.409607 246.313202,350.886627 246.487915,356.299255 
	C246.511017,357.015442 245.212769,358.483398 244.745010,358.398499 
	C239.005554,357.357330 236.297928,363.787628 230.732498,363.908203 
	C224.442200,363.523560 218.487946,363.045258 211.888962,362.515167 
	C211.888962,371.288544 211.888962,379.183350 211.810791,387.541382 
	C210.053009,388.943085 208.373428,389.881561 206.287262,390.478455 
	C206.327560,386.801697 205.127930,385.293304 201.528473,385.628967 
	C198.412689,385.919525 195.225006,385.461029 192.114594,385.778809 
	C190.406357,385.953308 188.792114,387.047607 186.154434,388.129639 
	C184.603287,387.462341 181.735580,385.738312 178.632339,384.985962 
	C169.475769,382.765961 162.221420,386.627930 155.891312,392.874176 
	C155.742767,392.728485 155.594208,392.582794 155.193512,391.868469 
	C154.225418,390.175354 153.509460,389.050812 152.810471,387.677002 
	C152.827423,387.427673 153.087952,387.001221 153.087952,387.001221 
	C157.670654,383.946167 162.254227,380.892365 166.831635,377.829376 
	C166.958267,377.744629 167.128220,377.520233 167.094376,377.429260 
	C164.973724,371.730896 169.567886,369.918152 173.050949,368.170746 
	C176.707489,366.336304 180.898163,365.566620 184.963028,364.298035 
	C184.074875,363.537842 182.807022,362.452667 182.273087,361.995636 
	C186.141068,356.448029 189.509628,350.979614 193.581192,346.097473 
	C195.161621,344.202393 198.345551,343.662170 200.769943,342.446716 
	C202.193039,341.733246 203.958740,341.226837 204.883652,340.075592 
	C209.789352,333.969360 214.453629,327.669891 219.251938,321.476349 
	C221.376282,318.734283 225.425049,317.073212 224.114624,312.143250 
z"/>
<path fill="#721AEB" opacity="1.000000" stroke="none" 
	d="
M231.196167,389.111237 
	C231.084579,389.257019 230.706284,389.360016 230.361115,389.228882 
	C230.572632,389.019348 230.751038,389.043884 231.196167,389.111237 
z"/>
<path fill="#FDFCFF" opacity="1.000000" stroke="none" 
	d="
M152.835510,386.645874 
	C153.087952,387.001221 152.827423,387.427673 152.569336,387.894135 
	C151.894882,389.574097 151.478500,390.787598 151.062134,392.001099 
	C142.495850,412.379364 133.856812,432.727661 125.442162,453.168335 
	C124.188217,456.214447 122.834938,457.655457 119.355881,457.396851 
	C114.735069,457.053375 110.069496,457.312134 104.328529,457.312134 
	C106.450645,452.143829 107.999649,447.508118 110.224159,443.223083 
	C112.048828,439.708282 112.030182,436.658356 109.761848,433.124084 
	C103.046417,417.448151 96.527153,402.102081 89.716888,386.071014 
	C96.238701,386.071014 102.033936,385.834412 107.781029,386.255249 
	C109.047920,386.347992 110.593208,388.585449 111.243637,390.153351 
	C114.628250,398.312012 117.764938,406.573486 121.490158,416.080933 
	C123.885536,410.296631 125.879784,405.697876 127.695862,401.029785 
	C129.269913,396.983887 130.432831,392.764252 132.225098,388.825073 
	C132.796280,387.569733 134.771530,386.251129 136.156769,386.192139 
	C141.620880,385.959290 147.105835,386.215698 152.835510,386.645874 
z"/>
<path fill="#FAF8FE" opacity="1.000000" stroke="none" 
	d="
M275.406372,229.014374 
	C274.629852,225.763580 275.844055,223.800110 279.178040,222.249954 
	C310.127869,207.859650 325.920898,182.671478 329.962891,149.518494 
	C332.104095,131.956085 333.666840,114.323128 335.350983,96.411026 
	C335.736938,95.497345 336.262573,94.894646 337.647064,93.307259 
	C337.647064,99.402557 337.647064,104.396759 337.647064,109.880455 
	C339.592346,109.880455 340.864044,109.880455 342.570251,109.803703 
	C355.658386,109.787140 368.312012,109.848129 380.965637,109.907158 
	C387.198120,109.936226 387.918640,110.447540 387.666412,116.834465 
	C387.358612,124.628700 386.617004,132.405807 386.090393,140.595993 
	C377.274231,171.428619 356.845337,189.823196 326.505615,197.188751 
	C319.519501,198.884796 314.507996,201.720383 309.829132,207.182434 
	C300.791168,217.733109 289.062958,224.705200 275.406372,229.014374 
M329.499695,179.969971 
	C353.726654,173.102859 373.718292,147.494247 371.382538,126.049065 
	C360.378571,126.049065 349.350037,126.049065 337.983551,126.049065 
	C337.696320,144.517624 335.996979,162.465652 329.499695,179.969971 
z"/>
<path fill="#BA8FF8" opacity="1.000000" stroke="none" 
	d="
M281.655090,112.089844 
	C282.096710,140.060699 282.096710,168.006149 282.096710,196.975174 
	C280.251160,195.912491 279.126801,195.446945 278.219421,194.713150 
	C272.269684,189.901581 266.246887,185.168686 260.498840,180.124222 
	C257.598816,177.579178 255.455765,177.293518 252.430511,180.000778 
	C247.103989,184.767410 241.422104,189.137909 235.868820,193.649414 
	C234.628738,194.656860 233.305115,195.561462 230.908386,197.336746 
	C230.908386,168.449417 230.908386,140.760101 230.889297,112.612450 
	C233.315994,112.310310 235.761765,112.466499 238.606781,112.581360 
	C253.075150,112.381500 267.144287,112.222977 281.655090,112.089844 
z"/>
<path fill="#B98EF8" opacity="1.000000" stroke="none" 
	d="
M214.397797,97.080589 
	C208.406845,99.096268 203.901794,96.464813 199.881790,93.246437 
	C194.804794,89.181839 194.898239,84.176666 200.667953,81.399254 
	C207.280014,78.216347 214.410873,75.713882 221.586456,74.176704 
	C239.921051,70.249016 258.529572,70.161499 277.583282,71.815292 
	C287.702942,73.938850 297.502930,75.718155 307.047150,78.405777 
	C311.486420,79.655861 316.961853,81.686272 316.880585,87.591835 
	C316.800171,93.432060 311.253815,94.939865 306.885559,96.677864 
	C304.777679,97.516518 302.010010,97.541557 299.749664,97.024048 
	C271.416077,90.537018 243.111984,90.437454 214.397797,97.080589 
z"/>
<path fill="#6F16E6" opacity="1.000000" stroke="none" 
	d="
M354.964813,331.283447 
	C354.893280,331.095001 354.938263,330.911133 354.983246,330.727295 
	C355.015930,330.914215 355.048615,331.101135 354.964813,331.283447 
z"/>
<path fill="#7B27F7" opacity="1.000000" stroke="none" 
	d="
M174.763153,109.112747 
	C174.791061,109.272308 174.656464,109.535149 174.274170,109.762939 
	C174.199829,109.537025 174.391220,109.366417 174.763153,109.112747 
z"/>
<path fill="#FDFCFF" opacity="1.000000" stroke="none" 
	d="
M155.801361,393.208496 
	C162.221420,386.627930 169.475769,382.765961 178.632339,384.985962 
	C181.735580,385.738312 184.603287,387.462341 186.154434,388.129639 
	C188.792114,387.047607 190.406357,385.953308 192.114594,385.778809 
	C195.225006,385.461029 198.412689,385.919525 201.528473,385.628967 
	C205.127930,385.293304 206.327560,386.801697 205.970337,390.568756 
	C206.060013,406.084137 206.060013,421.167694 206.060013,436.792572 
	C199.995010,436.792572 194.443176,436.792572 188.364014,436.792572 
	C188.222137,436.316895 187.887024,435.193298 187.450043,433.728180 
	C181.063934,438.391113 174.441727,440.366821 166.601776,437.519592 
	C149.033325,429.156799 144.411942,409.806244 155.801361,393.208496 
M186.481476,405.149963 
	C185.601517,404.400940 184.799133,403.526825 183.828079,402.924744 
	C179.721634,400.378723 175.551575,400.596466 171.749634,403.391235 
	C167.900879,406.220398 166.678391,410.222839 167.908829,414.854126 
	C169.165405,419.583862 172.489090,422.092773 177.186707,422.556976 
	C181.248642,422.958374 184.701797,421.423370 186.990112,417.921722 
	C189.616791,413.902374 189.376007,409.807007 186.481476,405.149963 
z"/>
<path fill="#741DED" opacity="1.000000" stroke="none" 
	d="
M151.455917,392.000793 
	C151.478500,390.787598 151.894882,389.574097 152.552399,388.143433 
	C153.509460,389.050812 154.225418,390.175354 154.970688,391.649963 
	C153.949905,392.000153 152.899796,392.000305 151.455917,392.000793 
z"/>
<path fill="#721BEB" opacity="1.000000" stroke="none" 
	d="
M300.673492,404.340210 
	C304.179749,408.899261 304.654358,413.449036 301.757599,418.019104 
	C299.529724,421.533997 296.102112,423.110260 291.942719,422.493103 
	C287.102631,421.774902 284.286041,418.702972 283.347321,414.040894 
	C282.448822,409.578613 283.910034,405.706238 287.616486,403.118744 
	C291.984131,400.069611 296.369720,400.721832 300.673492,404.340210 
z"/>
<path fill="#7018E8" opacity="1.000000" stroke="none" 
	d="
M348.264343,402.053833 
	C354.106812,400.663971 358.293121,402.094574 360.782379,406.086731 
	C363.116241,409.829559 362.734009,415.860809 359.764526,419.140411 
	C356.671112,422.556854 352.457825,424.047943 348.583313,421.734253 
	C345.800751,420.072571 343.149200,416.771057 342.264435,413.678864 
	C340.876984,408.829865 343.170013,404.625519 348.264343,402.053833 
z"/>
<path fill="#7A26F4" opacity="1.000000" stroke="none" 
	d="
M172.850800,125.751816 
	C173.960083,126.564720 175.107819,127.342094 175.131805,128.152725 
	C175.655853,145.865768 177.875565,163.248795 185.270004,179.825333 
	C164.004318,178.782776 140.542496,150.101379 141.169525,125.731781 
	C151.538162,125.731781 161.952011,125.731781 172.850800,125.751816 
z"/>
<path fill="#DFD2FB" opacity="1.000000" stroke="none" 
	d="
M246.410522,281.726318 
	C264.735901,282.437195 282.463135,281.405243 299.782440,276.723541 
	C305.643738,275.139099 311.789429,273.461609 315.054749,266.237701 
	C316.570984,270.126099 315.727448,272.896423 313.413361,274.830780 
	C310.907928,276.925110 308.079590,279.020142 305.032867,280.017395 
	C284.509003,286.735352 263.354584,288.595520 242.012650,286.106049 
	C230.217896,284.730225 218.491547,282.165649 206.981384,279.183594 
	C200.330917,277.460571 198.064163,273.204651 198.759598,268.129272 
	C207.095596,276.677734 218.239548,278.035065 229.109802,279.885620 
	C234.662048,280.830841 240.330063,281.096039 246.410522,281.726318 
z"/>
<path fill="#741DED" opacity="1.000000" stroke="none" 
	d="
M229.611328,312.138672 
	C230.115829,313.495422 230.227463,314.755035 230.339111,316.014648 
	C230.003098,316.241852 229.667099,316.469055 229.331085,316.696259 
	C228.247284,315.367096 227.163467,314.037933 226.039566,312.372498 
	C227.072464,312.037994 228.145462,312.039795 229.611328,312.138672 
z"/>
<path fill="#7520EE" opacity="1.000000" stroke="none" 
	d="
M329.200470,179.712875 
	C335.996979,162.465652 337.696320,144.517624 337.983551,126.049065 
	C349.350037,126.049065 360.378571,126.049065 371.382538,126.049065 
	C373.718292,147.494247 353.726654,173.102859 329.200470,179.712875 
z"/>
<path fill="#7520EE" opacity="1.000000" stroke="none" 
	d="
M186.702820,405.459412 
	C189.376007,409.807007 189.616791,413.902374 186.990112,417.921722 
	C184.701797,421.423370 181.248642,422.958374 177.186707,422.556976 
	C172.489090,422.092773 169.165405,419.583862 167.908829,414.854126 
	C166.678391,410.222839 167.900879,406.220398 171.749634,403.391235 
	C175.551575,400.596466 179.721634,400.378723 183.828079,402.924744 
	C184.799133,403.526825 185.601517,404.400940 186.702820,405.459412 
z"/>
</svg>
