<svg xmlns="http://www.w3.org/2000/svg" viewBox="15 15 92 92">
  <path fill="red" fill-rule="evenodd" d="M104.91,44.26s-.85-6-3.48-8.69c-3.33-3.48-7.07-3.5-8.77-3.71C80.42,31,62,31,62,31h0s-18.37,0-30.62.89c-1.71.21-5.44.23-8.77,3.71-2.63,2.65-3.47,8.69-3.47,8.69a133.12,133.12,0,0,0-.87,14.17v6.64a133.37,133.37,0,0,0,.87,14.17s.86,6,3.47,8.69c3.33,3.48,7.71,3.37,9.67,3.74,7,.67,29.76.87,29.76.87s18.4,0,30.64-.91c1.71-.2,5.44-.22,8.77-3.7,2.63-2.65,3.49-8.69,3.49-8.69a133.18,133.18,0,0,0,.87-14.18V58.43a136.86,136.86,0,0,0-.89-14.18Z"/>
  <polygon fill="white" fill-rule="evenodd" points="52.97 73.11 52.97 48.51 76.61 60.86 52.97 73.11"/>
</svg>
